<svg xmlns="http://www.w3.org/2000/svg" width="95" height="92" viewBox="0 0 95 92" fill="none"><rect width="94.0531" height="91.6415" rx="45.8208" fill="#F3682E"></rect><path d="M56.0909 71.0013H37.9169C37.6129 70.7403 37.3311 70.4716 37.5099 70.0136C37.6886 69.5557 38.0656 69.5179 38.4766 69.5348C38.6384 69.5427 38.8015 69.5348 38.9646 69.5348H40.9933V61.5764H25.9466C25.7196 61.5764 25.4913 61.5764 25.2643 61.5594C24.5191 61.5082 23.8101 61.219 23.2416 60.7345C22.6732 60.2499 22.2755 59.5956 22.107 58.8679C22.077 58.7374 22.0365 58.62 22 58.4974V24.0333C22.0309 23.9938 22.0555 23.9498 22.0731 23.9029C22.5219 22.0333 23.8044 21 25.6935 21C39.9039 21 54.1139 21 68.3234 21C70.5048 21 72 22.4965 72 24.6883C72 35.7545 72 46.8206 72 57.8868C72.0015 58.2764 71.9501 58.6643 71.8473 59.0401C71.4011 60.6409 70.0599 61.5699 68.2295 61.5699C63.3631 61.5699 58.4963 61.5699 53.629 61.5699H52.9767C52.9767 62.3031 52.9884 62.9541 52.9767 63.6038C52.9809 63.69 52.9679 63.7762 52.9386 63.8574C52.9092 63.9386 52.864 64.0131 52.8057 64.0767C52.7473 64.1403 52.6769 64.1917 52.5985 64.2278C52.5201 64.264 52.4354 64.2843 52.3491 64.2875C52.1772 64.3229 51.9981 64.2887 51.8514 64.1924C51.7046 64.096 51.6021 63.9453 51.5663 63.7734C51.5265 63.5998 51.5103 63.4217 51.518 63.2437C51.5115 62.6984 51.518 62.1543 51.518 61.6064H42.5159V69.5009H51.518C51.518 68.6868 51.5076 67.9066 51.518 67.1264C51.5285 66.5772 51.852 66.2627 52.3243 66.3032C52.7327 66.3371 52.9767 66.6241 52.9767 67.1212C52.9858 67.9131 52.9767 68.7051 52.9767 69.5348C53.8677 69.5348 54.6949 69.5414 55.5221 69.5348C55.933 69.5348 56.3114 69.5635 56.4888 70.0149C56.6662 70.4664 56.3923 70.7403 56.0909 71.0013ZM70.5335 52.475V51.9362C70.5335 42.8905 70.5335 33.8409 70.5335 24.7874C70.5335 23.2701 69.7272 22.4677 68.2125 22.4677H25.8201C24.2727 22.4677 23.4717 23.2636 23.4717 24.8161V52.475H70.5335ZM23.4756 53.995C23.4756 55.2383 23.5278 56.4269 23.4625 57.6076C23.3803 59.0806 24.2453 60.1321 25.9584 60.1243C35.4968 60.0851 45.0365 60.106 54.5762 60.106C59.1338 60.106 63.6919 60.106 68.2504 60.106C69.7312 60.106 70.5335 59.2932 70.5361 57.8046C70.5361 56.9252 70.5361 56.0463 70.5361 55.1679V53.9937L23.4756 53.995Z" fill="white"></path><path d="M47.0023 44.351C45.7146 46.0823 44.1555 47.3517 42.2533 48.1971C35.0477 51.3779 26.81 46.6707 25.8915 38.844C25.5393 35.8433 26.2607 33.1035 28.0194 30.6403C28.1499 30.4628 28.3352 30.2489 28.5178 30.2175C28.7592 30.1862 29.1049 30.2567 29.2523 30.4211C29.3998 30.5855 29.3828 30.9195 29.3893 31.1804C29.3893 31.2874 29.2589 31.4009 29.191 31.5079C24.9052 37.6398 28.1473 45.927 35.4456 47.5161C39.3883 48.3733 43.6532 46.6641 45.9312 43.332C46.1138 43.0711 46.1086 42.8754 45.9742 42.5884C44.3843 39.1858 44.3843 35.7806 45.9742 32.3728C46.1047 32.0819 46.1047 31.8914 45.922 31.6279C42.8404 27.102 36.5285 25.8743 31.8956 28.9116C31.2433 29.3408 30.8101 29.3421 30.54 28.9116C30.27 28.481 30.4474 28.1053 31.1115 27.6695C36.154 24.3648 42.9043 25.4673 46.6892 30.2136L46.9932 30.5933C49.6808 27.1907 53.1603 25.4973 57.4944 25.8247C60.6726 26.0648 63.3171 27.4738 65.3994 29.8888C67.358 32.1676 68.36 35.1152 68.1959 38.1156C68.0318 41.116 66.7142 43.9368 64.5187 45.9883C61.9629 48.3889 58.8969 49.4483 55.3952 49.1195C51.9209 48.8012 49.1654 47.1443 47.0023 44.351ZM56.499 27.2442C53.7831 27.2466 51.1789 28.3258 49.2574 30.2451C47.3359 32.1644 46.2537 34.7673 46.2482 37.4832C46.2482 43.1142 50.8772 47.7418 56.5016 47.7327C59.1778 47.6722 61.724 46.5667 63.5954 44.6526C65.4668 42.7385 66.5146 40.1679 66.5146 37.491C66.5146 34.8142 65.4668 32.2436 63.5954 30.3295C61.724 28.4154 59.1778 27.3098 56.5016 27.2494L56.499 27.2442Z" fill="white"></path><path d="M38.7851 36.5647C38.7851 37.264 38.7969 37.9633 38.7851 38.6626C38.7512 40.2634 37.3983 41.508 35.7218 41.4911C34.1105 41.4741 32.785 40.2229 32.7654 38.6652C32.7472 37.23 32.7563 35.8027 32.7654 34.3702C32.7654 33.8014 33.0525 33.483 33.5182 33.4909C33.984 33.4987 34.224 33.8027 34.2267 34.3546C34.2267 35.7375 34.2658 37.1217 34.2162 38.5034C34.181 39.4923 35.0708 40.0272 35.7714 40.0207C36.6755 40.0207 37.3213 39.3853 37.3239 38.506C37.3239 37.14 37.3239 35.774 37.3239 34.4067C37.3239 33.8092 37.5679 33.5013 38.0297 33.4935C38.5125 33.4817 38.7825 33.804 38.7865 34.4185C38.7904 35.1321 38.7851 35.8484 38.7851 36.5647Z" fill="white"></path><path d="M42.2545 37.517C42.2545 38.5411 42.2545 39.5653 42.2545 40.5894C42.2545 41.1531 41.9623 41.4949 41.52 41.4871C41.0777 41.4792 40.7959 41.1374 40.7933 40.5738C40.7898 38.5055 40.7881 36.4402 40.7881 34.3779C40.7881 33.7974 41.066 33.4869 41.5331 33.4921C42.0001 33.4973 42.2454 33.8 42.2493 34.3975C42.2584 35.4373 42.2545 36.4771 42.2545 37.517Z" fill="white"></path><path d="M47.005 57.7707C46.534 57.7707 46.0643 57.7864 45.5946 57.7707C45.0963 57.7498 44.8119 57.4524 44.8236 57.0179C44.8366 56.603 45.1158 56.3304 45.596 56.3225C46.5362 56.3069 47.4764 56.3069 48.4166 56.3225C48.8968 56.3304 49.1746 56.6043 49.1864 57.0205C49.1981 57.4367 48.9137 57.7498 48.414 57.772C47.9457 57.7864 47.4747 57.7707 47.005 57.7707Z" fill="white"></path><path d="M49.6365 36.605C49.6365 35.8405 49.6365 35.076 49.6365 34.3114C49.6365 33.8013 49.9079 33.5025 50.3397 33.4908C50.7911 33.479 51.0925 33.7882 51.0964 34.3166C51.1055 35.7309 51.0964 37.1465 51.0964 38.5607C51.0964 39.3944 51.7331 40.0141 52.5837 40.0259C53.4839 40.0376 54.1585 39.414 54.1637 38.5477C54.1637 37.2143 54.1637 35.8809 54.1637 34.5476C54.1583 34.385 54.1701 34.2223 54.1989 34.0622C54.2229 33.8899 54.3136 33.7339 54.4515 33.6278C54.5893 33.5217 54.7633 33.4739 54.936 33.4947C55.3274 33.5143 55.5779 33.7387 55.6092 34.1327C55.6406 34.5267 55.6275 34.9155 55.6275 35.3069C55.6275 36.4615 55.6484 37.6161 55.6171 38.7708C55.5779 40.2385 54.4168 41.3396 52.812 41.4806C51.3886 41.611 49.8818 40.5842 49.6926 39.2378C49.5726 38.3768 49.6704 37.4857 49.6704 36.6089L49.6365 36.605Z" fill="white"></path><path d="M60.1751 35.9737C60.6969 35.2261 61.1901 34.519 61.6963 33.8262C61.9677 33.4544 62.3904 33.3826 62.7231 33.6122C63.0558 33.8418 63.134 34.2646 62.9005 34.6481C62.8261 34.7786 62.7335 34.8882 62.6487 35.0082L61.074 37.2522C61.7746 38.2503 62.4713 39.2301 63.1614 40.2204C63.5215 40.7422 63.3767 41.2876 62.8496 41.4441C62.4582 41.5589 62.1895 41.3789 61.9755 41.0762C61.4784 40.3717 60.9853 39.6646 60.4869 38.9614C60.3956 38.8309 60.2938 38.7082 60.1672 38.5465C59.5527 39.4154 58.963 40.2425 58.3759 41.0814C58.1476 41.4037 57.8632 41.5824 57.4627 41.4298C56.976 41.2484 56.839 40.7474 57.1678 40.2673C57.7758 39.3828 58.3903 38.5021 59.0257 37.6371C59.2305 37.3592 59.2579 37.1661 59.0374 36.8765C58.5338 36.2242 58.0733 35.5275 57.6023 34.8477C57.2344 34.3259 57.2487 33.8758 57.6401 33.6109C58.0315 33.3461 58.4333 33.4805 58.8143 34.0219C59.2461 34.6547 59.6923 35.2887 60.1751 35.9737Z" fill="white"></path></svg>