<svg xmlns="http://www.w3.org/2000/svg" viewBox="0 0 775.31 305.51"><defs><style>.cls-1{fill:#fff;}</style></defs><g id="Layer_2" data-name="Layer 2"><g id="Layer_1-2" data-name="Layer 1"><path class="cls-1" d="M775.3,253.94c-.07.61-1.6,1.81-3.61,3.14-.41.27-.82.54-1.23.78-3.27,2.05-7.29,4.23-9.07,5.18-.2.1-.37.21-.51.27s-.06,0-.06,0a101.56,101.56,0,0,1-13,11.21,51.07,51.07,0,0,1-8,4.61,29.09,29.09,0,0,1-9.92,2.62,20,20,0,0,1-11.28-2.42,23.55,23.55,0,0,1-8-7.57c-3.75-5.72-5.35-11.66-6.44-17.42-2-11.52-1.63-22.8-.44-33.88a177.06,177.06,0,0,1,6.82-32.58A153.76,153.76,0,0,1,723.8,157c1-1.63,1.74-3,2.49-4.36q1.38-2.46,2.55-5c.58-1.3,1.16-2.56,1.64-3.89a49.06,49.06,0,0,0,3.13-13.39,44.08,44.08,0,0,0-5.82-25.74,59.47,59.47,0,0,0-3.72-5.76,65.37,65.37,0,0,0-4.43-5.32c-1.6-1.67-3.27-3.3-5-4.8-.89-.75-1.77-1.47-2.66-2.15l-1.33-1a9.61,9.61,0,0,0-1.12-.72c-4.61-5.08-14.7-10-21.51-13.46a31.72,31.72,0,0,0,4.9-1.33,34.41,34.41,0,0,0,16.91-13.5,33.65,33.65,0,0,0,6-20.79,32.89,32.89,0,0,0-.75-5.39c1,.78,1.39,3.27,1.39,3.27l6.14,27.37s1.12,3,2.52,6.51c1,.75,1.43,1.2,2.08,1.74l1.7,1.64c1.09,1.09,2.19,2.18,3.21,3.27q3.12,3.33,5.9,6.92a88.21,88.21,0,0,1,9.44,15.61A64.12,64.12,0,0,1,753,133.07a73.46,73.46,0,0,1-8,23.76c-.61,1.16-1.26,2.28-1.91,3.37-1.19,2-2.65,4.4-3.61,5.9-5.18,8.56-9.13,14.56-12.75,24.1s-8,21.88-9.44,32-1.67,20.39-.14,29.93c.79,4.7,2.19,9.27,4.3,12.54a10.44,10.44,0,0,0,3.44,3.45,7.12,7.12,0,0,0,4.13.82c3.3-.21,7.46-2.25,11.31-5a78.34,78.34,0,0,0,9.89-8.59l0,0,0-.07.07-.07a21.86,21.86,0,0,0,6.82-15.47c0-.07,0-.11.06-.17a1,1,0,0,1,.14-.38,1,1,0,0,1,.41-.54c.07-.07.17-.07.27-.11h.1c.07,0,.14,0,.21,0s.07,0,.14.07a.7.7,0,0,1,.17.06c.1.07.2.17.3.24a1.56,1.56,0,0,1,.31.34.94.94,0,0,1,.24.28c1.6,2.18,4.5,6.71,7.43,9,.07,0,.13.1.2.13a6.58,6.58,0,0,0,1.06.68c.14.07.31.14.48.24a.21.21,0,0,0,.13.07c1.74.85,3.58,1.47,4.88,2.18a.17.17,0,0,1,.13.07C774.72,252.51,775.37,253.12,775.3,253.94Z"/><path class="cls-1" d="M200.68,264.26q.23-3.42.22-7.61V159.08q0-4.19-.22-7.62a45.63,45.63,0,0,0-.88-6.51H232q33.76,0,49.66,9.83t15.9,25.71q0,15-14.24,24.61t-44.26,10.49a53.56,53.56,0,0,1,21.52,5q9.39,4.51,17.77,18l4,6.4q7,11.48,11.36,17.1a43.71,43.71,0,0,0,8.5,8.72H263.59q-.66-7.27-9.93-22.73l-4.86-8.17q-5.52-9.27-9.6-14.9a43.87,43.87,0,0,0-8.72-9.16h-3.09v40.84q0,4.19.22,7.61a45.25,45.25,0,0,0,.88,6.51H199.8A45.25,45.25,0,0,0,200.68,264.26Zm60-60.37q10.38-8.61,10.38-23.4T260.72,157q-10.38-8.72-28.69-8.72h-4.64V212.5H232Q250.35,212.5,260.72,203.89Z"/><path class="cls-1" d="M335.29,261.7c.2-3.18.31-6.71.31-10.61V188.67q0-14.14-1.54-19.22t-7.68-5.07L374,144.7a44.91,44.91,0,0,0-1.38,11.07q-.17,6.76-.16,17.83v77.49c0,3.9.1,7.43.31,10.61a62.21,62.21,0,0,0,1.23,9.07h-40A60.87,60.87,0,0,0,335.29,261.7Z"/><path class="cls-1" d="M337.75,130.24a19.74,19.74,0,0,1-6.14-14.45,19.27,19.27,0,0,1,6.14-14.3,20,20,0,0,1,14.46-6,20.47,20.47,0,0,1,20.29,20.3,20,20,0,0,1-6,14.45,19.26,19.26,0,0,1-14.3,6.15A19.75,19.75,0,0,1,337.75,130.24Z"/><path class="cls-1" d="M414.32,261.7c.2-3.18.3-6.71.3-10.61V188.67q0-14.14-1.53-19.22t-7.69-5.07l47.66-19.68a67.84,67.84,0,0,0-1.23,10.45q-.3,6.15-.3,15.38v80.56c0,3.9.1,7.43.3,10.61a63.61,63.61,0,0,0,1.23,9.07h-40A63.61,63.61,0,0,0,414.32,261.7Zm92.25,0c.2-3.18.31-6.71.31-10.61V194.2q0-17.82-4.31-29.36t-19.06-11.53q-17.53,0-32,19.06a53.35,53.35,0,0,1,16.6-20.75q11.07-8.46,28.29-8.46,23.69,0,35.52,12.91t11.84,38.13v56.89c0,3.9.1,7.43.31,10.61a60.87,60.87,0,0,0,1.23,9.07h-40A63.61,63.61,0,0,0,506.57,261.7Z"/><path class="cls-1" d="M571.92,157a55.9,55.9,0,0,0-10.61-12.29H616q0,7.06,4.31,18.91a197.44,197.44,0,0,0,10.76,24.14l22.45,43.66a293.72,293.72,0,0,0,20.14-47.35q7.23-22.76,5.69-39.36h24q-5.24,12.92-15.53,32.44t-43.21,79.8L637,270.77H632l-46.75-90.1Q577,164.7,571.92,157Z"/><path class="cls-1" d="M247,287.77a11.39,11.39,0,0,1-1,4.8,17.21,17.21,0,0,1-2.64,4.14,21.18,21.18,0,0,1-3.73,3.38,24.22,24.22,0,0,1-4.27,2.44q-5.94,3-16.09,3a51.85,51.85,0,0,1-21-4.21A67.74,67.74,0,0,1,184.14,293q-1.87-1.39-3.66-2.95a91.2,91.2,0,0,1-14.74-16.38,173,173,0,0,1-12-19.49,215.9,215.9,0,0,1-9.47-20.58c-2.75-6.94-5.16-13.54-7.23-19.75q-2.7-8.15-4.95-15.37t-4.14-14a47.6,47.6,0,0,0-2.08-5.62,26.05,26.05,0,0,0-3.18-5.36,19.73,19.73,0,0,0-1.34-1.51,15.87,15.87,0,0,0-3.07-2.49,10.94,10.94,0,0,0-5.89-1.55h-1a9.73,9.73,0,0,0-2,.27,14.1,14.1,0,0,0-6.09,2.44l-.26.27a.31.31,0,0,1-.13.23s0,0,0,0v1.21c0,2-.09,3.88-.1,5.82-.09,9.85-.07,19.71.1,29.5V232.8a26.83,26.83,0,0,0,2.57,12,21.23,21.23,0,0,0,8.53,8.73,19.25,19.25,0,0,0-11.1,3.66c-1.8,1.25-3.6,2.61-5.4,4.05s-3.66,3-5.55,4.75q-3.46,3.07-6.88,5.75c-.44-5-.76-9.91-1-14.85a642,642,0,0,1,1.7-79.41q1.5-19.66,3.85-39.24,1.16-9.79,2.48-19.54l1.36-9.77c.45-3.24.93-6.28,1.27-9.44a124.82,124.82,0,0,0,.73-18.7,69.5,69.5,0,0,0-1.36-11.3A45,45,0,0,0,92.21,63,32,32,0,0,0,88,55.19a24,24,0,0,0-6.53-5.91,29.31,29.31,0,0,0-18-3.8l-.16-.57a29.54,29.54,0,0,1,18.68,0,1.34,1.34,0,0,0,0,.6,1.36,1.36,0,0,0,.32.7,1.05,1.05,0,0,0,.29.23s.09.05.1.07l.09,0,.7.35a14.41,14.41,0,0,0,3,1.06c.25,0,.52.09.8.12l.41,0a2.3,2.3,0,0,1,.4,0l.3,0a.76.76,0,0,1,.21,0A32.36,32.36,0,0,1,98.7,59.9a52.38,52.38,0,0,1,4,9.76c.16.53.31,1.09.43,1.62A74.78,74.78,0,0,1,105,79.81c.09.59.17,1.2.25,1.79a114.08,114.08,0,0,1,.89,18.61c0,1.7-.13,3.36-.2,5.05s-.16,3.4-.28,5L105,120q-.62,9.72-1,19.44-.37,8.4-.62,16.81c2.14-3.55,4.21-7.07,6.24-10.51q3.24-5.46,6.64-11,7.19-11.62,13.12-21.86T140,93.65A20,20,0,0,0,142.18,85a13.63,13.63,0,0,0-2.38-7.58,13.85,13.85,0,0,0-5.89-5.29,37.21,37.21,0,0,0,11-1.69q5.54-1.7,10.55-3.59a121,121,0,0,1,13.28-4.46,51.56,51.56,0,0,1,13.79-1.89c.91,0,1.79,0,2.64.07s1.74.1,2.65.19a42.28,42.28,0,0,0-10.91,6.5,112.91,112.91,0,0,0-10.89,10,140.3,140.3,0,0,0-9.74,11.22c-3,3.84-5.52,7.25-7.59,10.23q-11,16.38-21.45,32.89t-20.65,33.57q9.34-4.34,18.55-9.13c.8-.41,1.58-.84,2.37-1.27a136.05,136.05,0,0,0,15.22-9.64q.84,6.91,2.64,17.21.54,2.94,1.15,6.06,1.51,7.71,3.6,16.41,2.9,12.18,6.84,25.45t8.87,26.12a234.85,234.85,0,0,0,11,24.44,120.18,120.18,0,0,0,13.13,20.36c1,1.23,2,2.41,3,3.54,1.28,1.41,2.58,2.73,3.92,4a54.83,54.83,0,0,0,8.34,6.44,32.27,32.27,0,0,0,17.52,5.16,39.77,39.77,0,0,0,7.37-.68,18.76,18.76,0,0,0,6.84-2.84,11,11,0,0,1-4.39-3.53,8.89,8.89,0,0,1-1.7-5.41,7.56,7.56,0,0,1,2.38-5.69,7.89,7.89,0,0,1,5.74-2.3,7.86,7.86,0,0,1,8,8Z"/><path class="cls-1" d="M3.28,20.22a30.23,30.23,0,0,1,11.5,3.22,37,37,0,0,1,9.8,7.07l1.07,1.08c.34.38.66.77,1,1.16l1,1.16L28.55,35C29.76,36.51,31,38,32.29,39.33a39.36,39.36,0,0,0,8.58,7.07,20.11,20.11,0,0,0,5,2,9.25,9.25,0,0,0,1.29.28,14.48,14.48,0,0,0,2.62.22h1.11a2.53,2.53,0,0,1,.85.12,2.84,2.84,0,0,1,2,2.55,2.78,2.78,0,0,1-.42,1.67,4.08,4.08,0,0,1-.25.33l-.1.12-.19.24a7.2,7.2,0,0,0-.66,1c-.09.17-.18.34-.26.51l0,.07s0,0,0,0a.41.41,0,0,1,0-.07.76.76,0,0,0,0-.15,1.21,1.21,0,0,0-.17-.63,1.37,1.37,0,0,0-.25-.32l-.15-.11-.11-.06a1.05,1.05,0,0,0-.28-.1H51c.15,0,.35,0,.56-.08.41-.09.86-.21,1.32-.34.91-.25,1.83-.54,2.77-.83,1.86-.58,3.76-1.13,5.68-1.62A52.25,52.25,0,0,1,67.17,50a28.65,28.65,0,0,1,6-.28A14.34,14.34,0,0,1,79,51.23l-.24.52a14.56,14.56,0,0,0-5.6-.72,30.87,30.87,0,0,0-5.63.84q-2.79.68-5.53,1.6c-1.82.6-3.63,1.3-5.46,2-.92.34-1.84.68-2.79,1-.48.16-1,.31-1.5.45a9,9,0,0,1-.88.19,4.83,4.83,0,0,1-.59,0l-.4,0a2.46,2.46,0,0,1-.63-.2l-.19-.11a1.57,1.57,0,0,1-.21-.17,1.53,1.53,0,0,1-.37-.46,1.62,1.62,0,0,1-.2-.52,2.79,2.79,0,0,1-.05-.46c0-.11,0-.22,0-.33s0-.16.05-.25l.07-.2,0-.11a8.24,8.24,0,0,1,.35-.81,10.42,10.42,0,0,1,.9-1.48l.26-.34.13-.16s0,0,0,0a.46.46,0,0,0-.08.27.42.42,0,0,0,.31.4l.13,0H50.6l-.8,0a14.39,14.39,0,0,1-1.61,0,12.2,12.2,0,0,1-1.6-.15A13.73,13.73,0,0,1,45,51.83a23,23,0,0,1-5.9-2.3,38.1,38.1,0,0,1-9.45-7.75c-1.34-1.5-2.66-3-3.84-4.61L24.92,36l-.86-1.1-.87-1.11-.94-1a40.38,40.38,0,0,0-8.59-7.3,40.33,40.33,0,0,0-5-2.7C7.77,22.33,6.88,22,6,21.64a24.84,24.84,0,0,0-2.75-.84Z"/><path class="cls-1" d="M.2,8.43A29.38,29.38,0,0,0,5,8.72c.78,0,1.57-.05,2.35-.12l1.16-.12L9.63,8.3A27.07,27.07,0,0,0,14.1,7.18L14.64,7l.54-.21,1.06-.43c.35-.15.69-.32,1-.49l.52-.24.26-.13.31-.13a14.76,14.76,0,0,1,2.49-1c.44-.12.86-.27,1.3-.35s.89-.15,1.33-.21a15.62,15.62,0,0,1,5.29.28,17.59,17.59,0,0,1,8.81,5l-.37.44a24.1,24.1,0,0,0-8.87-2.9,15.61,15.61,0,0,0-4.43.15L22.84,7c-.35.08-.7.22-1.05.32a15,15,0,0,0-2,.84l-1.14.52-1.18.53-1.22.44-.61.22-.62.17-1.26.32-1.27.24c-.42.08-.85.12-1.28.17s-.85.1-1.28.1a21.75,21.75,0,0,1-5.1-.34A17,17,0,0,1,0,9Z"/><path class="cls-1" d="M41.94,0a26.59,26.59,0,0,1,8.72,3,33.32,33.32,0,0,1,7.52,5.46,39.63,39.63,0,0,1,3.16,3.44c.47.61,1,1.23,1.39,1.87l.66,1,.62,1a42.55,42.55,0,0,1,4,8.4l.73,2.2.62,2.23,0,.05,0-.08a1,1,0,0,0-.12-.19.77.77,0,0,0-.38-.24.73.73,0,0,0-.77.27.56.56,0,0,0-.11.2l0,.09v0l0-.27.08-.52a18.92,18.92,0,0,0,.17-2.12,14.67,14.67,0,0,0-.48-4.14l0-.13,0-.1a1.75,1.75,0,0,1,0-.33,1.33,1.33,0,0,1,.66-1.2,1.35,1.35,0,0,1,1.4,0,2,2,0,0,1,.26.22l.1.12,0,0,.09.12c.23.32.45.66.67,1A17.76,17.76,0,0,1,72,23.43a14.32,14.32,0,0,1,1.25,4.65c0,.41,0,.81,0,1.22l0,1.05c0,.35.06.71.12,1.06s.11.71.2,1.06a27,27,0,0,0,3.57,8.07l-.46.35a26.56,26.56,0,0,1-2.61-3.79,21.88,21.88,0,0,1-1.88-4.25c-.13-.38-.21-.77-.32-1.15s-.15-.78-.22-1.17-.07-.81-.11-1.21,0-.69-.1-1a12.92,12.92,0,0,0-1.32-4,17,17,0,0,0-1.09-1.83c-.2-.29-.41-.58-.63-.85l-.08-.11,0,0,0,.06.16.13A.83.83,0,0,0,69.84,21a.6.6,0,0,0,0-.2h0v0l.05.14a15.83,15.83,0,0,1,.72,4.8,21.46,21.46,0,0,1-.14,2.4l-.07.59,0,.3v0l0,.11a1.8,1.8,0,0,1-.06.22,2,2,0,0,1-.26.45,1.71,1.71,0,0,1-1.79.57,1.68,1.68,0,0,1-.85-.54,1.9,1.9,0,0,1-.26-.43c0-.07,0-.14-.08-.22l0-.08L66.35,27l-.72-2.09a43,43,0,0,0-9.09-14.88A37,37,0,0,0,46,2.24,28.09,28.09,0,0,0,41.84.57Z"/><path class="cls-1" d="M97.68,51.63l-.32.49A58,58,0,0,0,92,49.38a20.2,20.2,0,0,0-2.74-1,4,4,0,0,0-.68-.16l-.13,0a.76.76,0,0,0-.21,0l-.3,0a2.3,2.3,0,0,0-.4,0l-.41,0c-.28,0-.55-.07-.8-.12a14.41,14.41,0,0,1-3-1.06l-.7-.35-.09,0s0,0-.1-.07a1.05,1.05,0,0,1-.29-.23,1.36,1.36,0,0,1-.32-.7,1.34,1.34,0,0,1,0-.6,1.41,1.41,0,0,1,.57-.7,1.28,1.28,0,0,1,.36-.16l.3,0h.38l.2,0c-.15-.11-.29-.22-.43-.31a23.72,23.72,0,0,1-2.39-2A17.92,17.92,0,0,1,77,36.8a13.13,13.13,0,0,1-1.13-3L75.77,33l-.13-.73a14.43,14.43,0,0,0-.28-1.43,29.51,29.51,0,0,0-1.88-5.55A42.37,42.37,0,0,0,70.72,20l.44-.35a24.66,24.66,0,0,1,3.48,5,25.13,25.13,0,0,1,2.23,5.74c.13.5.24,1,.33,1.54l.25,1.43a11.45,11.45,0,0,0,1,2.64,17.87,17.87,0,0,0,3.53,4.53,27.11,27.11,0,0,0,2.23,1.89l.59.43.15.11.12.09a1,1,0,0,1,.16.14,1.23,1.23,0,0,1,0,1.61,1.18,1.18,0,0,1-.75.43.85.85,0,0,1-.27,0l-.19,0h-.38l-.36,0,.06,0h.05l.59.32a13.7,13.7,0,0,0,1.84.81,8.54,8.54,0,0,0,.82.25l.68.14.34,0L88,47l.45,0,.39.09a5.67,5.67,0,0,1,.79.21,21.87,21.87,0,0,1,2.84,1.22A49.8,49.8,0,0,1,97.68,51.63Z"/><path class="cls-1" d="M33.46,25.77a27.77,27.77,0,0,0,3.65,6.82,13.86,13.86,0,0,0,5.7,4.72,9.43,9.43,0,0,0,3.52.69,3.07,3.07,0,0,0,1.49-.36,1.62,1.62,0,0,0,.75-1.06,7.1,7.1,0,0,0-.27-3.4c-.17-.59-.37-1.19-.6-1.77L47.53,31a2.7,2.7,0,0,1-.2-.61,2.42,2.42,0,0,1,.14-1.48,2.54,2.54,0,0,1,2.35-1.54c.62,0,1.24,0,1.85-.09a11,11,0,0,0,1.76-.34,4.13,4.13,0,0,0,1.42-.72,1.63,1.63,0,0,0,.66-1.14,3.4,3.4,0,0,0-.22-1.56l-.14-.41L55,22.65l-.4-.87c-.28-.56-.54-1.15-.87-1.69a14,14,0,0,0-2.18-3,8.87,8.87,0,0,0-3-2.12,9.46,9.46,0,0,0-3.67-.73,19.51,19.51,0,0,0-3.85.49,16.37,16.37,0,0,1,3.82-1,9.23,9.23,0,0,1,7.51,2.51,15.11,15.11,0,0,1,2.55,3.16c.38.56.68,1.15,1,1.74l.44.89c.08.16.15.3.22.46l.2.51a4.9,4.9,0,0,1,.36,2.26c0,.21-.06.42-.12.63l-.24.6c-.11.18-.24.36-.36.54a4.67,4.67,0,0,1-.44.45,5.89,5.89,0,0,1-2,1.08,11.88,11.88,0,0,1-2.07.42,20.33,20.33,0,0,1-2,.13.81.81,0,0,0-.74.48A.71.71,0,0,0,49,30a7.31,7.31,0,0,0,.29.79c.23.63.45,1.28.62,1.94a12.7,12.7,0,0,1,.39,2.06A6,6,0,0,1,50.16,37a3.29,3.29,0,0,1-1.54,2,4.58,4.58,0,0,1-2.28.51,10.22,10.22,0,0,1-4.07-1,14.13,14.13,0,0,1-5.86-5.49A23.55,23.55,0,0,1,33.46,25.77Z"/><path class="cls-1" d="M46.06,35.3c-.12,0-.27,0-.45,0-4.66-.68-7.31-6.31-8.24-8.7A7.11,7.11,0,0,1,37,22.28a5.52,5.52,0,0,1,.71-1.72,6,6,0,0,1,4-2.5c5.73-1.28,8.27.14,10.91,6.07l.1.26a9.86,9.86,0,0,1-3,.36,5.12,5.12,0,0,0-4.31,2.39,5.07,5.07,0,0,0-.41,4.66A12.18,12.18,0,0,1,46.06,35.3Z"/><path class="cls-1" d="M676,51a22.06,22.06,0,0,1,4-13.7,21.45,21.45,0,0,1,11.1-8.75q6.74-2.27,11.59,1t5.2,10.3a21.83,21.83,0,0,1-4,13.52,22.49,22.49,0,0,1-11.1,8.93c-4.49,1.64-8.34,1.36-11.58-.81S676.19,55.86,676,51Z"/><path class="cls-1" d="M708.42,116.64a29.15,29.15,0,0,0-9.71-12.92c-2.59-1.67-4.6-2.45-6.68-3.82a66.21,66.21,0,0,1-5.93-4.43,103.38,103.38,0,0,1-10.74-10.8,40.9,40.9,0,0,0,8.42,13.22,44.79,44.79,0,0,0,6,5.29c1.84,1.29,4.09,2.45,5.83,3.44-2.35,1.36-3.44,4.63-2.49,7.91,1.09,3.78,4.6,6.13,7.78,5.28a5.52,5.52,0,0,0,3.68-3.61c.37.58.75,1.19,1.09,1.8A97.62,97.62,0,0,1,712,131.88,46.56,46.56,0,0,0,708.42,116.64Zm-8-.31c-1.06,0-2.35-1.5-2.86-3.27s-.11-3.2,1-3.2,2.36,1.46,2.9,3.27S701.47,116.33,700.38,116.33Z"/><path class="cls-1" d="M273.82,303.9c0-.45,0-.94,0-1.49V281.23a20.07,20.07,0,0,0-5.5.62,17.38,17.38,0,0,0-4.07,1.84l1.46-3.11h21.4l1.47,3.11a17.63,17.63,0,0,0-4.08-1.84,20.07,20.07,0,0,0-5.5-.62v21.18c0,.55,0,1,0,1.49a8.44,8.44,0,0,0,.18,1.27h-5.61A10,10,0,0,0,273.82,303.9Z"/><path class="cls-1" d="M308.2,303.9c0-.45.05-.94.05-1.49V283.34c0-.54,0-1-.05-1.49a8.46,8.46,0,0,0-.17-1.27h15.83l1.47,3.11a16.56,16.56,0,0,0-4.27-1.84,26.23,26.23,0,0,0-6.47-.62h-1.17v11.3h8.07v.65h-8.07v11.34h1.17a25.75,25.75,0,0,0,6.47-.62,16.56,16.56,0,0,0,4.27-1.84l-1.47,3.11H308A8.46,8.46,0,0,0,308.2,303.9Z"/><path class="cls-1" d="M348.5,303.66a11.35,11.35,0,0,1-4.4-4.64,13.56,13.56,0,0,1-1.51-6.36,13.92,13.92,0,0,1,1.31-6.06,10.51,10.51,0,0,1,4.12-4.51,13.31,13.31,0,0,1,7.08-1.72,23.72,23.72,0,0,1,4,.32,19.2,19.2,0,0,1,3.4.84l-1.68,3.71a18.83,18.83,0,0,0-2.74-2.91,5.38,5.38,0,0,0-3.64-1.32,4.65,4.65,0,0,0-3.5,1.62,10.86,10.86,0,0,0-2.33,4.21,17.91,17.91,0,0,0-.82,5.39,15.53,15.53,0,0,0,1.1,6,9.6,9.6,0,0,0,3.22,4.19,8.37,8.37,0,0,0,5,1.53,6.81,6.81,0,0,0,3.37-.75,6.41,6.41,0,0,0,2-1.71,6.8,6.8,0,0,1-2.35,2.74,8.34,8.34,0,0,1-4.86,1.19A13,13,0,0,1,348.5,303.66Z"/><path class="cls-1" d="M383,303.9c0-.45.05-.94.05-1.49V283.34c0-.54,0-1-.05-1.49a7.34,7.34,0,0,0-.17-1.27h5.61a8.46,8.46,0,0,0-.17,1.27c0,.45-.05.95-.05,1.49v9.19h8.72v-9.19c0-.54,0-1,0-1.49a8.44,8.44,0,0,0-.18-1.27h5.61a8.46,8.46,0,0,0-.17,1.27c0,.45,0,.95,0,1.49v19.07c0,.55,0,1,0,1.49a8.46,8.46,0,0,0,.17,1.27h-5.61a8.44,8.44,0,0,0,.18-1.27c0-.45,0-.94,0-1.49v-9.23h-8.72v9.23c0,.55,0,1,.05,1.49a8.46,8.46,0,0,0,.17,1.27h-5.61A7.34,7.34,0,0,0,383,303.9Z"/><path class="cls-1" d="M422.63,303a41.51,41.51,0,0,0,.15-4.42V287.22a41.64,41.64,0,0,0-.15-4.42,11.9,11.9,0,0,0-.5-2.22h6.61a8.05,8.05,0,0,0,.53,2.42c.34.92.85,2.13,1.54,3.62l7.55,15.66c.05-1.21.08-2.46.08-3.75V287.22a41.64,41.64,0,0,0-.15-4.42,13.72,13.72,0,0,0-.49-2.22h1.94a12.75,12.75,0,0,0-.5,2.22,41.64,41.64,0,0,0-.15,4.42v11.31a41.51,41.51,0,0,0,.15,4.42,12.75,12.75,0,0,0,.5,2.22h-6.6a8.37,8.37,0,0,0-.54-2.41c-.33-.92-.85-2.13-1.53-3.63l-7.55-15.66q-.09,1.81-.09,3.75v11.31a41.51,41.51,0,0,0,.15,4.42,12.75,12.75,0,0,0,.5,2.22h-1.95A11.9,11.9,0,0,0,422.63,303Z"/><path class="cls-1" d="M462.49,302.13q-2.91-3.25-2.91-9.25t2.91-9.26a11.48,11.48,0,0,1,16,0q2.91,3.25,2.91,9.26t-2.91,9.25a11.46,11.46,0,0,1-16,0Zm12.36-.69a22.47,22.47,0,0,0,1.38-8.56,24.13,24.13,0,0,0-.69-6,11.11,11.11,0,0,0-2-4.29,3.74,3.74,0,0,0-6.13,0,11.11,11.11,0,0,0-2,4.29,24.13,24.13,0,0,0-.69,6,22.47,22.47,0,0,0,1.38,8.56q1.38,3.3,4.36,3.3T474.85,301.44Z"/><path class="cls-1" d="M501.43,303.9c0-.45,0-.94,0-1.49V283.34c0-.54,0-1,0-1.49a8.44,8.44,0,0,0-.18-1.27h5.61a10,10,0,0,0-.17,1.27c0,.45,0,.95,0,1.49v21.18h1.16a25.7,25.7,0,0,0,6.47-.62,16.41,16.41,0,0,0,4.27-1.84l-1.46,3.11H501.25A8.44,8.44,0,0,0,501.43,303.9Z"/><path class="cls-1" d="M537.43,302.13q-2.91-3.25-2.91-9.25t2.91-9.26a11.47,11.47,0,0,1,16,0q2.91,3.25,2.91,9.26t-2.91,9.25a11.45,11.45,0,0,1-16,0Zm12.36-.69a22.47,22.47,0,0,0,1.38-8.56,24.13,24.13,0,0,0-.69-6,11,11,0,0,0-2-4.29,3.73,3.73,0,0,0-6.12,0,11,11,0,0,0-2,4.29,24.13,24.13,0,0,0-.69,6,22.47,22.47,0,0,0,1.38,8.56c.92,2.2,2.38,3.3,4.36,3.3S548.87,303.64,549.79,301.44Z"/><path class="cls-1" d="M581.88,303.66a11.48,11.48,0,0,1-4.4-4.64,13.56,13.56,0,0,1-1.51-6.36,13.93,13.93,0,0,1,1.32-6.06,10.51,10.51,0,0,1,4.12-4.51,13.3,13.3,0,0,1,7.07-1.72,23.64,23.64,0,0,1,4,.32,19.32,19.32,0,0,1,3.41.84l-1.68,3.71a19.33,19.33,0,0,0-2.74-2.91,5.41,5.41,0,0,0-3.65-1.32,4.63,4.63,0,0,0-3.49,1.62,10.74,10.74,0,0,0-2.33,4.21,17.6,17.6,0,0,0-.82,5.39,15.53,15.53,0,0,0,1.1,6,9.51,9.51,0,0,0,3.21,4.19,8.38,8.38,0,0,0,5,1.53,3.58,3.58,0,0,0,.65,0V296.8a10.55,10.55,0,0,0-.22-2.69,1,1,0,0,0-1.08-.72l6.69-2.76a6,6,0,0,0-.19,1.56c0,.63,0,1.46,0,2.5v6.77a5.82,5.82,0,0,1-2.48,2.74,9.6,9.6,0,0,1-5.15,1.19A13.07,13.07,0,0,1,581.88,303.66Z"/><path class="cls-1" d="M617.43,303.9c0-.45,0-.94,0-1.49V283.34c0-.54,0-1,0-1.49a10,10,0,0,0-.17-1.27h5.61a8.44,8.44,0,0,0-.18,1.27c0,.45,0,.95,0,1.49v19.07c0,.55,0,1,0,1.49a8.44,8.44,0,0,0,.18,1.27h-5.61A10,10,0,0,0,617.43,303.9Z"/><path class="cls-1" d="M643.31,303.9c0-.45.05-.94.05-1.49V283.34c0-.54,0-1-.05-1.49a8.46,8.46,0,0,0-.17-1.27H659l1.47,3.11a16.56,16.56,0,0,0-4.27-1.84,26.23,26.23,0,0,0-6.47-.62h-1.17v11.3h8.07v.65h-8.07v11.34h1.17a25.75,25.75,0,0,0,6.47-.62,16.56,16.56,0,0,0,4.27-1.84L659,305.17H643.14A8.46,8.46,0,0,0,643.31,303.9Z"/><path class="cls-1" d="M684.15,305a20.77,20.77,0,0,1-3.87-.93l1.77-3.75a19.48,19.48,0,0,0,3.69,3.06,8.25,8.25,0,0,0,4.55,1.25,3.09,3.09,0,0,0,2.12-.69,2.38,2.38,0,0,0,.77-1.85,4.41,4.41,0,0,0-.82-2.57,10,10,0,0,0-2-2.13c-.78-.64-1.86-1.41-3.24-2.33s-2.69-1.84-3.6-2.57a11.11,11.11,0,0,1-2.31-2.57,5.91,5.91,0,0,1-1-3.28,5.6,5.6,0,0,1,2.08-4.61q2.07-1.68,6.25-1.68a29,29,0,0,1,4.47.36,22.59,22.59,0,0,1,3.86.93l-1.77,3.75a19.86,19.86,0,0,0-3.69-3.06,8.33,8.33,0,0,0-4.55-1.25,3.09,3.09,0,0,0-2.12.69,2.38,2.38,0,0,0-.77,1.85,4.41,4.41,0,0,0,.82,2.57,10.52,10.52,0,0,0,2,2.14c.78.63,1.86,1.41,3.24,2.33s2.69,1.83,3.6,2.56a11.09,11.09,0,0,1,2.31,2.57,5.93,5.93,0,0,1,1,3.28,5.62,5.62,0,0,1-2.07,4.61q-2.07,1.69-6.26,1.69A28.84,28.84,0,0,1,684.15,305Z"/></g></g></svg>